<svg xmlns="http://www.w3.org/2000/svg" xmlns:xlink="http://www.w3.org/1999/xlink" width="350" zoomAndPan="magnify" viewBox="0 0 262.5 134.249994" height="179" preserveAspectRatio="xMidYMid meet" version="1.0"><defs><g/><clipPath id="df52d4bfaf"><path d="M 233 38 L 261.523438 38 L 261.523438 72 L 233 72 Z M 233 38 " clip-rule="nonzero"/></clipPath></defs><g fill="#a57e24" fill-opacity="1"><g transform="translate(0.795251, 71.022186)"><g><path d="M 9.21875 -24.109375 C 8.09375 -25.472656 7.117188 -26.570312 6.296875 -27.40625 C 5.472656 -28.25 4.632812 -28.914062 3.78125 -29.40625 C 2.9375 -29.90625 2.019531 -30.222656 1.03125 -30.359375 L 1.03125 -31.21875 L 13.40625 -31.21875 L 13.40625 -30.203125 L 7.421875 -30.203125 C 9.566406 -29.585938 12.210938 -27.351562 15.359375 -23.5 L 30.359375 -4.90625 L 30.359375 0.8125 L 29.484375 0.8125 Z M 28.8125 -25.1875 C 28.78125 -26.65625 28.628906 -27.695312 28.359375 -28.3125 C 28.085938 -28.925781 27.53125 -29.367188 26.6875 -29.640625 C 25.851562 -29.910156 24.378906 -30.148438 22.265625 -30.359375 L 22.265625 -31.21875 L 35.578125 -31.21875 L 35.578125 -30.359375 C 33.941406 -30.148438 32.804688 -29.910156 32.171875 -29.640625 C 31.535156 -29.367188 31.113281 -28.925781 30.90625 -28.3125 C 30.707031 -27.695312 30.59375 -26.65625 30.5625 -25.1875 L 30.359375 -13.046875 L 29.015625 -13.046875 Z M 1.03125 -0.875 C 2.664062 -1.070312 3.796875 -1.304688 4.421875 -1.578125 C 5.054688 -1.859375 5.472656 -2.304688 5.671875 -2.921875 C 5.878906 -3.535156 6.003906 -4.578125 6.046875 -6.046875 L 6.25 -18.171875 L 7.578125 -18.171875 L 7.78125 -6.046875 C 7.8125 -4.578125 7.960938 -3.535156 8.234375 -2.921875 C 8.515625 -2.304688 9.070312 -1.859375 9.90625 -1.578125 C 10.738281 -1.304688 12.210938 -1.070312 14.328125 -0.875 L 14.328125 0 L 1.03125 0 Z M 1.03125 -0.875 "/></g></g></g><g fill="#a57e24" fill-opacity="1"><g transform="translate(34.012065, 71.022186)"><g><path d="M 11.625 0.8125 C 9.601562 0.613281 7.832031 -0.0351562 6.3125 -1.140625 C 4.800781 -2.253906 3.625 -3.707031 2.78125 -5.5 C 1.945312 -7.289062 1.53125 -9.242188 1.53125 -11.359375 C 1.53125 -13.472656 1.957031 -15.398438 2.8125 -17.140625 C 3.664062 -18.890625 4.867188 -20.304688 6.421875 -21.390625 C 7.972656 -22.484375 9.789062 -23.132812 11.875 -23.34375 L 11.875 -22.3125 C 10.101562 -21.875 8.738281 -20.691406 7.78125 -18.765625 C 6.820312 -16.835938 6.34375 -14.367188 6.34375 -11.359375 C 6.34375 -8.328125 6.800781 -5.8125 7.71875 -3.8125 C 8.644531 -1.8125 9.945312 -0.609375 11.625 -0.203125 Z M 8.390625 -11.671875 L 8.390625 -12.6875 L 18.421875 -12.6875 C 18.421875 -15.625 18.046875 -17.898438 17.296875 -19.515625 C 16.546875 -21.140625 15.421875 -22.070312 13.921875 -22.3125 L 13.921875 -23.34375 C 15.796875 -23.207031 17.425781 -22.644531 18.8125 -21.65625 C 20.195312 -20.664062 21.265625 -19.316406 22.015625 -17.609375 C 22.765625 -15.898438 23.140625 -13.921875 23.140625 -11.671875 Z M 13.671875 -0.203125 C 16.023438 -0.367188 17.898438 -1.039062 19.296875 -2.21875 C 20.691406 -3.40625 21.628906 -4.898438 22.109375 -6.703125 L 23.140625 -6.703125 C 22.628906 -4.554688 21.585938 -2.816406 20.015625 -1.484375 C 18.441406 -0.148438 16.328125 0.613281 13.671875 0.8125 Z M 13.671875 -0.203125 "/></g></g></g><g fill="#a57e24" fill-opacity="1"><g transform="translate(55.303297, 71.022186)"><g><path d="M 14.6875 0 L 14.6875 -0.875 L 21.65625 -0.875 C 20.488281 -1.144531 19.210938 -1.765625 17.828125 -2.734375 C 16.453125 -3.710938 15.320312 -4.796875 14.4375 -5.984375 L 5.484375 -18.125 C 4.691406 -19.175781 4.09375 -19.921875 3.6875 -20.359375 C 3.28125 -20.804688 2.867188 -21.113281 2.453125 -21.28125 C 2.046875 -21.457031 1.484375 -21.5625 0.765625 -21.59375 L 0.765625 -22.515625 L 11.46875 -22.515625 L 11.46875 -21.65625 L 4.5 -21.65625 C 5.664062 -21.382812 6.9375 -20.769531 8.3125 -19.8125 C 9.695312 -18.851562 10.832031 -17.773438 11.71875 -16.578125 L 20.734375 -4.453125 C 21.515625 -3.390625 22.109375 -2.632812 22.515625 -2.1875 C 22.929688 -1.75 23.34375 -1.4375 23.75 -1.25 C 24.15625 -1.0625 24.703125 -0.953125 25.390625 -0.921875 L 25.390625 0 Z M 15.203125 -14.84375 C 17.316406 -17.707031 18.375 -19.617188 18.375 -20.578125 C 18.375 -20.953125 18.203125 -21.222656 17.859375 -21.390625 C 17.523438 -21.566406 16.945312 -21.65625 16.125 -21.65625 L 16.125 -22.515625 L 24.875 -22.515625 L 24.875 -21.65625 C 23.820312 -21.550781 22.976562 -21.378906 22.34375 -21.140625 C 21.707031 -20.898438 21.070312 -20.460938 20.4375 -19.828125 C 19.8125 -19.203125 19.039062 -18.238281 18.125 -16.9375 L 16.125 -14.125 Z M 0.25 -0.875 C 1.28125 -0.976562 2.082031 -1.144531 2.65625 -1.375 C 3.238281 -1.613281 3.84375 -2.03125 4.46875 -2.625 C 5.101562 -3.226562 5.953125 -4.210938 7.015625 -5.578125 L 9.375 -8.859375 L 10.34375 -8.1875 C 7.945312 -4.914062 6.75 -2.800781 6.75 -1.84375 C 6.75 -1.5 6.910156 -1.265625 7.234375 -1.140625 C 7.566406 -1.023438 8.160156 -0.9375 9.015625 -0.875 L 9.015625 0 L 0.25 0 Z M 0.25 -0.875 "/></g></g></g><g fill="#a57e24" fill-opacity="1"><g transform="translate(78.334746, 71.022186)"><g><path d="M 10.234375 0.8125 C 8.359375 0.8125 6.953125 0.285156 6.015625 -0.765625 C 5.078125 -1.828125 4.609375 -3.445312 4.609375 -5.625 L 4.609375 -16.4375 C 4.609375 -18.070312 4.515625 -19.226562 4.328125 -19.90625 C 4.140625 -20.59375 3.78125 -21.035156 3.25 -21.234375 C 2.71875 -21.441406 1.804688 -21.582031 0.515625 -21.65625 L 0.515625 -22.515625 L 8.953125 -22.515625 L 8.953125 -6.140625 C 8.953125 -4.941406 9.0625 -4.019531 9.28125 -3.375 C 9.507812 -2.726562 9.851562 -2.269531 10.3125 -2 C 10.769531 -1.726562 11.375 -1.59375 12.125 -1.59375 C 12.945312 -1.59375 13.882812 -1.8125 14.9375 -2.25 C 16 -2.695312 16.769531 -3.125 17.25 -3.53125 L 17.8125 -2.71875 C 16.820312 -1.6875 15.632812 -0.835938 14.25 -0.171875 C 12.875 0.484375 11.535156 0.8125 10.234375 0.8125 Z M 19.5 -16.4375 C 19.5 -18.070312 19.40625 -19.226562 19.21875 -19.90625 C 19.03125 -20.59375 18.671875 -21.035156 18.140625 -21.234375 C 17.617188 -21.441406 16.707031 -21.582031 15.40625 -21.65625 L 15.40625 -22.515625 L 23.859375 -22.515625 L 23.859375 -6.40625 C 23.859375 -4.757812 23.941406 -3.601562 24.109375 -2.9375 C 24.273438 -2.269531 24.625 -1.828125 25.15625 -1.609375 C 25.6875 -1.390625 26.617188 -1.242188 27.953125 -1.171875 L 27.953125 -0.3125 L 19.5 0.8125 Z M 19.5 -16.4375 "/></g></g></g><g fill="#a57e24" fill-opacity="1"><g transform="translate(103.669417, 71.022186)"><g><path d="M 10.390625 -0.109375 C 11.648438 -0.203125 12.664062 -0.648438 13.4375 -1.453125 C 14.207031 -2.253906 14.59375 -3.238281 14.59375 -4.40625 C 14.59375 -5.1875 14.3125 -5.875 13.75 -6.46875 C 13.1875 -7.070312 12.304688 -7.644531 11.109375 -8.1875 L 6.75 -10.140625 C 5.082031 -10.890625 3.796875 -11.859375 2.890625 -13.046875 C 1.984375 -14.242188 1.53125 -15.59375 1.53125 -17.09375 C 1.53125 -18.800781 2.144531 -20.21875 3.375 -21.34375 C 4.601562 -22.46875 6.257812 -23.132812 8.34375 -23.34375 L 8.34375 -22.421875 C 6.09375 -22.078125 4.96875 -20.832031 4.96875 -18.6875 C 4.96875 -16.976562 6.054688 -15.613281 8.234375 -14.59375 L 13.40625 -12.234375 C 14.976562 -11.515625 16.144531 -10.644531 16.90625 -9.625 C 17.675781 -8.601562 18.0625 -7.390625 18.0625 -5.984375 C 18.0625 -4.003906 17.378906 -2.410156 16.015625 -1.203125 C 14.648438 0.00390625 12.773438 0.675781 10.390625 0.8125 Z M 15.09375 -17.5625 C 14.25 -17.5625 13.59375 -17.882812 13.125 -18.53125 C 12.664062 -19.175781 12.4375 -20.082031 12.4375 -21.25 L 12.4375 -23.078125 C 14.039062 -22.910156 15.21875 -22.546875 15.96875 -21.984375 C 16.71875 -21.421875 17.09375 -20.644531 17.09375 -19.65625 C 17.09375 -19.039062 16.90625 -18.535156 16.53125 -18.140625 C 16.15625 -17.753906 15.675781 -17.5625 15.09375 -17.5625 Z M 5.9375 0.515625 C 4.332031 0.335938 3.15625 -0.03125 2.40625 -0.59375 C 1.65625 -1.15625 1.28125 -1.929688 1.28125 -2.921875 C 1.28125 -3.535156 1.46875 -4.035156 1.84375 -4.421875 C 2.21875 -4.816406 2.695312 -5.015625 3.28125 -5.015625 C 4.132812 -5.015625 4.789062 -4.691406 5.25 -4.046875 C 5.707031 -3.398438 5.9375 -2.492188 5.9375 -1.328125 Z M 5.9375 0.515625 "/></g></g></g><g fill="#a57e24" fill-opacity="1"><g transform="translate(119.893555, 71.022186)"><g><path d="M 6.96875 -22.875 C 6.113281 -24.894531 5.394531 -26.390625 4.8125 -27.359375 C 4.226562 -28.328125 3.617188 -29.023438 2.984375 -29.453125 C 2.359375 -29.878906 1.535156 -30.179688 0.515625 -30.359375 L 0.515625 -31.21875 L 12.59375 -31.21875 L 12.59375 -30.203125 L 4.703125 -30.203125 C 6.210938 -29.859375 7.476562 -29.175781 8.5 -28.15625 C 9.519531 -27.132812 10.457031 -25.632812 11.3125 -23.65625 L 19.140625 -5.375 L 22.78125 -13.96875 L 23.90625 -13.515625 L 18.015625 0.8125 L 17 0.8125 Z M 21.5 -22.875 C 20.644531 -24.894531 19.925781 -26.390625 19.34375 -27.359375 C 18.769531 -28.328125 18.164062 -29.023438 17.53125 -29.453125 C 16.894531 -29.878906 16.066406 -30.179688 15.046875 -30.359375 L 15.046875 -31.21875 L 34.25 -31.21875 L 34.25 -30.359375 C 33.351562 -30.253906 32.625 -30.039062 32.0625 -29.71875 C 31.5 -29.394531 30.96875 -28.875 30.46875 -28.15625 C 29.976562 -27.4375 29.410156 -26.410156 28.765625 -25.078125 L 28.15625 -23.796875 L 27.234375 -24.265625 C 27.503906 -24.941406 27.71875 -25.601562 27.875 -26.25 C 28.03125 -26.90625 28.109375 -27.4375 28.109375 -27.84375 C 28.109375 -28.53125 28.003906 -29.039062 27.796875 -29.375 C 27.585938 -29.71875 27.296875 -29.941406 26.921875 -30.046875 C 26.546875 -30.148438 26.019531 -30.203125 25.34375 -30.203125 L 19.25 -30.203125 C 20.75 -29.859375 22.007812 -29.175781 23.03125 -28.15625 C 24.050781 -27.132812 24.988281 -25.632812 25.84375 -23.65625 L 34.390625 -3.6875 L 32.5625 0.8125 L 31.53125 0.8125 Z M 36.796875 -14.84375 C 37.785156 -17.507812 38.597656 -19.757812 39.234375 -21.59375 C 39.867188 -23.4375 40.285156 -24.773438 40.484375 -25.609375 C 40.691406 -26.453125 40.796875 -27.179688 40.796875 -27.796875 C 40.796875 -28.378906 40.679688 -28.835938 40.453125 -29.171875 C 40.234375 -29.515625 39.832031 -29.769531 39.25 -29.9375 C 38.675781 -30.113281 37.828125 -30.253906 36.703125 -30.359375 L 36.703125 -31.21875 L 48.015625 -31.21875 L 48.015625 -30.359375 C 46.679688 -30.179688 45.597656 -29.703125 44.765625 -28.921875 C 43.929688 -28.140625 43.140625 -26.859375 42.390625 -25.078125 L 37.875 -14.4375 Z M 36.796875 -14.84375 "/></g></g></g><g fill="#a57e24" fill-opacity="1"><g transform="translate(165.291876, 71.022186)"><g><path d="M 11.625 0.8125 C 9.601562 0.613281 7.832031 -0.0351562 6.3125 -1.140625 C 4.800781 -2.253906 3.625 -3.707031 2.78125 -5.5 C 1.945312 -7.289062 1.53125 -9.242188 1.53125 -11.359375 C 1.53125 -13.472656 1.957031 -15.398438 2.8125 -17.140625 C 3.664062 -18.890625 4.867188 -20.304688 6.421875 -21.390625 C 7.972656 -22.484375 9.789062 -23.132812 11.875 -23.34375 L 11.875 -22.3125 C 10.101562 -21.875 8.738281 -20.691406 7.78125 -18.765625 C 6.820312 -16.835938 6.34375 -14.367188 6.34375 -11.359375 C 6.34375 -8.328125 6.800781 -5.8125 7.71875 -3.8125 C 8.644531 -1.8125 9.945312 -0.609375 11.625 -0.203125 Z M 8.390625 -11.671875 L 8.390625 -12.6875 L 18.421875 -12.6875 C 18.421875 -15.625 18.046875 -17.898438 17.296875 -19.515625 C 16.546875 -21.140625 15.421875 -22.070312 13.921875 -22.3125 L 13.921875 -23.34375 C 15.796875 -23.207031 17.425781 -22.644531 18.8125 -21.65625 C 20.195312 -20.664062 21.265625 -19.316406 22.015625 -17.609375 C 22.765625 -15.898438 23.140625 -13.921875 23.140625 -11.671875 Z M 13.671875 -0.203125 C 16.023438 -0.367188 17.898438 -1.039062 19.296875 -2.21875 C 20.691406 -3.40625 21.628906 -4.898438 22.109375 -6.703125 L 23.140625 -6.703125 C 22.628906 -4.554688 21.585938 -2.816406 20.015625 -1.484375 C 18.441406 -0.148438 16.328125 0.613281 13.671875 0.8125 Z M 13.671875 -0.203125 "/></g></g></g><g fill="#a57e24" fill-opacity="1"><g transform="translate(186.583109, 71.022186)"><g><path d="M 18.9375 0.8125 C 16.375 0.8125 15.09375 -0.632812 15.09375 -3.53125 L 15.09375 -16.53125 C 15.09375 -18.375 14.75 -19.789062 14.0625 -20.78125 C 13.382812 -21.769531 12.414062 -22.316406 11.15625 -22.421875 L 11.15625 -23.34375 C 13.34375 -23.34375 15.023438 -23.101562 16.203125 -22.625 C 17.378906 -22.144531 18.210938 -21.320312 18.703125 -20.15625 C 19.203125 -19 19.453125 -17.347656 19.453125 -15.203125 L 19.453125 -3.578125 C 19.453125 -3.003906 19.550781 -2.570312 19.75 -2.28125 C 19.957031 -1.988281 20.285156 -1.84375 20.734375 -1.84375 C 21.140625 -1.84375 21.535156 -1.976562 21.921875 -2.25 C 22.316406 -2.519531 22.773438 -3 23.296875 -3.6875 L 23.90625 -3.28125 C 22.675781 -0.550781 21.019531 0.8125 18.9375 0.8125 Z M 5.421875 -14.6875 C 4.671875 -14.6875 4.054688 -14.953125 3.578125 -15.484375 C 3.097656 -16.015625 2.859375 -16.6875 2.859375 -17.5 C 2.859375 -18.25 3.085938 -18.984375 3.546875 -19.703125 C 4.015625 -20.421875 4.640625 -21.035156 5.421875 -21.546875 C 6.242188 -21.003906 6.882812 -20.378906 7.34375 -19.671875 C 7.800781 -18.972656 8.03125 -18.25 8.03125 -17.5 C 8.03125 -16.6875 7.78125 -16.015625 7.28125 -15.484375 C 6.789062 -14.953125 6.171875 -14.6875 5.421875 -14.6875 Z M 6.90625 0.8125 C 5.851562 0.8125 4.914062 0.585938 4.09375 0.140625 C 3.269531 -0.296875 2.632812 -0.90625 2.1875 -1.6875 C 1.75 -2.46875 1.53125 -3.375 1.53125 -4.40625 C 1.53125 -6.519531 2.398438 -8.222656 4.140625 -9.515625 C 5.878906 -10.816406 8.457031 -11.6875 11.875 -12.125 L 13.109375 -12.28125 L 13.109375 -11.359375 L 12.28125 -11.203125 C 10.269531 -10.828125 8.664062 -10.109375 7.46875 -9.046875 C 6.28125 -7.992188 5.6875 -6.753906 5.6875 -5.328125 C 5.6875 -4.160156 5.992188 -3.257812 6.609375 -2.625 C 7.222656 -2 8.109375 -1.6875 9.265625 -1.6875 C 9.878906 -1.6875 10.441406 -1.769531 10.953125 -1.9375 C 11.460938 -2.113281 12.113281 -2.441406 12.90625 -2.921875 L 13.359375 -2.296875 C 11.585938 -0.222656 9.4375 0.8125 6.90625 0.8125 Z M 6.90625 0.8125 "/></g></g></g><g fill="#a57e24" fill-opacity="1"><g transform="translate(207.874329, 71.022186)"><g><path d="M 0.515625 0 L 0.515625 -0.875 L 8.546875 -0.875 C 5.921875 -1.65625 4.609375 -3.800781 4.609375 -7.3125 L 4.609375 -26.671875 C 4.609375 -28.304688 4.515625 -29.460938 4.328125 -30.140625 C 4.140625 -30.828125 3.78125 -31.269531 3.25 -31.46875 C 2.71875 -31.675781 1.804688 -31.816406 0.515625 -31.890625 L 0.515625 -32.765625 L 8.953125 -32.765625 L 8.953125 -6.09375 C 8.953125 -4.457031 9.035156 -3.304688 9.203125 -2.640625 C 9.378906 -1.972656 9.738281 -1.523438 10.28125 -1.296875 C 10.832031 -1.078125 11.753906 -0.9375 13.046875 -0.875 L 13.046875 0 Z M 0.515625 0 "/></g></g></g><g fill="#a57e24" fill-opacity="1"><g transform="translate(218.314811, 71.022186)"><g><path d="M 10.390625 0.8125 C 8.410156 0.8125 6.953125 0.285156 6.015625 -0.765625 C 5.078125 -1.828125 4.609375 -3.445312 4.609375 -5.625 L 4.609375 -16.734375 C 4.609375 -17.898438 4.492188 -18.78125 4.265625 -19.375 C 4.046875 -19.96875 3.644531 -20.382812 3.0625 -20.625 C 2.488281 -20.863281 1.640625 -20.984375 0.515625 -20.984375 L 0.515625 -22.21875 C 2.554688 -22.414062 4.007812 -22.738281 4.875 -23.1875 C 5.75 -23.632812 6.359375 -24.421875 6.703125 -25.546875 C 7.046875 -26.671875 7.285156 -28.5625 7.421875 -31.21875 L 8.953125 -31.21875 L 8.953125 -22.515625 L 15.765625 -22.515625 L 15.765625 -20.984375 L 5.0625 -20.984375 C 6.257812 -20.742188 7.207031 -20.101562 7.90625 -19.0625 C 8.601562 -18.019531 8.953125 -16.71875 8.953125 -15.15625 L 8.953125 -5.984375 C 8.953125 -4.378906 9.191406 -3.242188 9.671875 -2.578125 C 10.148438 -1.921875 10.96875 -1.59375 12.125 -1.59375 C 13.53125 -1.59375 14.914062 -2.304688 16.28125 -3.734375 L 16.890625 -3.28125 C 16.109375 -1.945312 15.171875 -0.929688 14.078125 -0.234375 C 12.984375 0.460938 11.753906 0.8125 10.390625 0.8125 Z M 10.390625 0.8125 "/></g></g></g><g clip-path="url(#df52d4bfaf)"><g fill="#a57e24" fill-opacity="1"><g transform="translate(233.361761, 71.022186)"><g><path d="M 0.515625 0 L 0.515625 -0.875 L 8.546875 -0.875 C 5.921875 -1.65625 4.609375 -3.800781 4.609375 -7.3125 L 4.609375 -26.671875 C 4.609375 -28.304688 4.515625 -29.460938 4.328125 -30.140625 C 4.140625 -30.828125 3.78125 -31.269531 3.25 -31.46875 C 2.71875 -31.675781 1.804688 -31.816406 0.515625 -31.890625 L 0.515625 -32.765625 L 8.953125 -32.765625 L 8.953125 -6.09375 C 8.953125 -4.457031 9.035156 -3.304688 9.203125 -2.640625 C 9.378906 -1.972656 9.738281 -1.523438 10.28125 -1.296875 C 10.832031 -1.078125 11.753906 -0.9375 13.046875 -0.875 L 13.046875 0 Z M 16.125 0 L 16.125 -0.875 L 23.703125 -0.875 C 22.398438 -1.25 21.414062 -1.976562 20.75 -3.0625 C 20.09375 -4.15625 19.765625 -5.570312 19.765625 -7.3125 L 19.765625 -16.375 C 19.765625 -17.570312 19.648438 -18.492188 19.421875 -19.140625 C 19.203125 -19.785156 18.859375 -20.242188 18.390625 -20.515625 C 17.929688 -20.796875 17.328125 -20.9375 16.578125 -20.9375 C 15.765625 -20.9375 14.828125 -20.710938 13.765625 -20.265625 C 12.710938 -19.828125 11.945312 -19.398438 11.46875 -18.984375 L 10.90625 -19.8125 C 11.894531 -20.832031 13.078125 -21.675781 14.453125 -22.34375 C 15.835938 -23.007812 17.179688 -23.34375 18.484375 -23.34375 C 20.359375 -23.34375 21.765625 -22.8125 22.703125 -21.75 C 23.640625 -20.695312 24.109375 -19.078125 24.109375 -16.890625 L 24.109375 -6.09375 C 24.109375 -4.488281 24.191406 -3.34375 24.359375 -2.65625 C 24.535156 -1.976562 24.894531 -1.523438 25.4375 -1.296875 C 25.988281 -1.078125 26.910156 -0.9375 28.203125 -0.875 L 28.203125 0 Z M 16.125 0 "/></g></g></g></g><g fill="#a57e24" fill-opacity="1"><g transform="translate(4.576256, 90.01031)"><g><path d="M 0.28125 0 L 0.28125 -0.28125 L 2.796875 -0.28125 C 2.421875 -0.394531 2.144531 -0.597656 1.96875 -0.890625 C 1.789062 -1.179688 1.703125 -1.585938 1.703125 -2.109375 L 1.703125 -6.703125 C 1.703125 -7.234375 1.671875 -7.601562 1.609375 -7.8125 C 1.554688 -8.03125 1.441406 -8.175781 1.265625 -8.25 C 1.085938 -8.320312 0.757812 -8.382812 0.28125 -8.4375 L 0.28125 -8.671875 L 1.625 -8.671875 C 1.96875 -8.671875 2.234375 -8.609375 2.421875 -8.484375 C 2.609375 -8.359375 2.738281 -8.144531 2.8125 -7.84375 C 2.894531 -7.539062 2.9375 -7.113281 2.9375 -6.5625 L 2.9375 -1.96875 C 2.9375 -1.445312 2.960938 -1.078125 3.015625 -0.859375 C 3.078125 -0.648438 3.195312 -0.503906 3.375 -0.421875 C 3.5625 -0.347656 3.890625 -0.285156 4.359375 -0.234375 L 4.359375 0 Z M 3.21875 -8.109375 C 3.125 -8.378906 2.972656 -8.566406 2.765625 -8.671875 L 4.359375 -8.671875 L 4.359375 -8.4375 C 4.078125 -8.414062 3.84375 -8.378906 3.65625 -8.328125 C 3.476562 -8.285156 3.332031 -8.210938 3.21875 -8.109375 Z M 3.21875 -8.109375 "/></g></g></g><g fill="#a57e24" fill-opacity="1"><g transform="translate(13.928534, 90.01031)"><g><path d="M 2.5625 -6.703125 C 2.25 -7.078125 1.976562 -7.378906 1.75 -7.609375 C 1.519531 -7.847656 1.285156 -8.035156 1.046875 -8.171875 C 0.816406 -8.304688 0.5625 -8.394531 0.28125 -8.4375 L 0.28125 -8.671875 L 3.71875 -8.671875 L 3.71875 -8.390625 L 2.0625 -8.390625 C 2.65625 -8.222656 3.390625 -7.601562 4.265625 -6.53125 L 8.4375 -1.359375 L 8.4375 0.234375 L 8.1875 0.234375 Z M 8 -7 C 7.988281 -7.40625 7.945312 -7.691406 7.875 -7.859375 C 7.800781 -8.035156 7.644531 -8.160156 7.40625 -8.234375 C 7.175781 -8.304688 6.769531 -8.375 6.1875 -8.4375 L 6.1875 -8.671875 L 9.875 -8.671875 L 9.875 -8.4375 C 9.425781 -8.375 9.113281 -8.304688 8.9375 -8.234375 C 8.757812 -8.160156 8.640625 -8.035156 8.578125 -7.859375 C 8.523438 -7.691406 8.492188 -7.40625 8.484375 -7 L 8.4375 -3.625 L 8.0625 -3.625 Z M 0.28125 -0.234375 C 0.738281 -0.296875 1.054688 -0.363281 1.234375 -0.4375 C 1.410156 -0.507812 1.523438 -0.628906 1.578125 -0.796875 C 1.628906 -0.972656 1.660156 -1.265625 1.671875 -1.671875 L 1.734375 -5.046875 L 2.109375 -5.046875 L 2.15625 -1.671875 C 2.164062 -1.265625 2.207031 -0.972656 2.28125 -0.796875 C 2.363281 -0.628906 2.519531 -0.507812 2.75 -0.4375 C 2.976562 -0.363281 3.390625 -0.296875 3.984375 -0.234375 L 3.984375 0 L 0.28125 0 Z M 0.28125 -0.234375 "/></g></g></g><g fill="#a57e24" fill-opacity="1"><g transform="translate(28.721607, 90.01031)"><g><path d="M 1.9375 -6.359375 C 1.695312 -6.910156 1.492188 -7.316406 1.328125 -7.578125 C 1.171875 -7.847656 1.003906 -8.046875 0.828125 -8.171875 C 0.648438 -8.296875 0.421875 -8.382812 0.140625 -8.4375 L 0.140625 -8.671875 L 3.671875 -8.671875 L 3.671875 -8.390625 L 1.3125 -8.390625 C 1.726562 -8.296875 2.078125 -8.101562 2.359375 -7.8125 C 2.640625 -7.53125 2.898438 -7.113281 3.140625 -6.5625 L 5.515625 -1.03125 L 5 0.234375 L 4.71875 0.234375 Z M 6.40625 -4.125 C 6.820312 -5.226562 7.109375 -6.035156 7.265625 -6.546875 C 7.429688 -7.066406 7.515625 -7.457031 7.515625 -7.71875 C 7.515625 -7.894531 7.472656 -8.03125 7.390625 -8.125 C 7.316406 -8.226562 7.203125 -8.296875 7.046875 -8.328125 C 6.898438 -8.367188 6.679688 -8.40625 6.390625 -8.4375 L 6.390625 -8.671875 L 9.53125 -8.671875 L 9.53125 -8.4375 C 9.3125 -8.40625 9.117188 -8.347656 8.953125 -8.265625 C 8.785156 -8.179688 8.617188 -8.035156 8.453125 -7.828125 C 8.285156 -7.628906 8.125 -7.34375 7.96875 -6.96875 L 6.71875 -4.015625 Z M 6.40625 -4.125 "/></g></g></g><g fill="#a57e24" fill-opacity="1"><g transform="translate(43.088502, 90.01031)"><g><path d="M 0.28125 0 L 0.28125 -0.28125 L 2.796875 -0.28125 C 2.421875 -0.394531 2.144531 -0.597656 1.96875 -0.890625 C 1.789062 -1.179688 1.703125 -1.585938 1.703125 -2.109375 L 1.703125 -6.703125 C 1.703125 -7.234375 1.671875 -7.601562 1.609375 -7.8125 C 1.554688 -8.03125 1.441406 -8.175781 1.265625 -8.25 C 1.085938 -8.320312 0.757812 -8.382812 0.28125 -8.4375 L 0.28125 -8.671875 L 1.625 -8.671875 C 1.96875 -8.671875 2.234375 -8.609375 2.421875 -8.484375 C 2.609375 -8.359375 2.738281 -8.144531 2.8125 -7.84375 C 2.894531 -7.539062 2.9375 -7.113281 2.9375 -6.5625 L 2.9375 -1.96875 C 2.9375 -1.445312 2.960938 -1.082031 3.015625 -0.875 C 3.066406 -0.675781 3.179688 -0.535156 3.359375 -0.453125 C 3.535156 -0.378906 3.847656 -0.320312 4.296875 -0.28125 L 4.296875 0 Z M 7.1875 -6.484375 C 6.976562 -7.117188 6.804688 -7.550781 6.671875 -7.78125 C 6.535156 -8.019531 6.351562 -8.171875 6.125 -8.234375 C 5.894531 -8.304688 5.503906 -8.34375 4.953125 -8.34375 L 3.234375 -8.34375 C 3.203125 -8.414062 3.160156 -8.476562 3.109375 -8.53125 C 3.054688 -8.582031 2.992188 -8.628906 2.921875 -8.671875 L 7.421875 -8.671875 L 7.421875 -6.484375 Z M 6.015625 -2.875 C 5.953125 -3.3125 5.882812 -3.617188 5.8125 -3.796875 C 5.738281 -3.972656 5.613281 -4.09375 5.4375 -4.15625 C 5.257812 -4.21875 4.972656 -4.25 4.578125 -4.25 L 3.515625 -4.25 L 3.515625 -4.578125 L 4.578125 -4.578125 C 4.984375 -4.578125 5.269531 -4.609375 5.4375 -4.671875 C 5.613281 -4.734375 5.738281 -4.851562 5.8125 -5.03125 C 5.882812 -5.207031 5.953125 -5.519531 6.015625 -5.96875 L 6.25 -5.96875 L 6.25 -2.875 Z M 4.859375 -0.28125 C 5.484375 -0.3125 5.925781 -0.363281 6.1875 -0.4375 C 6.445312 -0.507812 6.664062 -0.65625 6.84375 -0.875 C 7.03125 -1.09375 7.296875 -1.515625 7.640625 -2.140625 L 7.84375 -2.078125 L 7.4375 0 L 4.859375 0 Z M 4.859375 -0.28125 "/></g></g></g><g fill="#a57e24" fill-opacity="1"><g transform="translate(55.850154, 90.01031)"><g><path d="M 3.546875 -0.0625 C 3.867188 -0.0703125 4.15625 -0.148438 4.40625 -0.296875 C 4.664062 -0.453125 4.863281 -0.660156 5 -0.921875 C 5.132812 -1.179688 5.203125 -1.476562 5.203125 -1.8125 C 5.203125 -2.050781 5.15625 -2.257812 5.0625 -2.4375 C 4.976562 -2.625 4.832031 -2.800781 4.625 -2.96875 C 4.425781 -3.132812 4.140625 -3.3125 3.765625 -3.5 L 2.375 -4.203125 C 1.738281 -4.523438 1.25 -4.890625 0.90625 -5.296875 C 0.570312 -5.703125 0.40625 -6.191406 0.40625 -6.765625 C 0.40625 -7.160156 0.503906 -7.515625 0.703125 -7.828125 C 0.910156 -8.148438 1.195312 -8.40625 1.5625 -8.59375 C 1.9375 -8.789062 2.375 -8.894531 2.875 -8.90625 L 2.875 -8.609375 C 2.632812 -8.609375 2.414062 -8.53125 2.21875 -8.375 C 2.019531 -8.226562 1.863281 -8.039062 1.75 -7.8125 C 1.632812 -7.582031 1.578125 -7.320312 1.578125 -7.03125 C 1.578125 -6.65625 1.6875 -6.332031 1.90625 -6.0625 C 2.132812 -5.789062 2.515625 -5.523438 3.046875 -5.265625 L 4.359375 -4.59375 C 5.054688 -4.238281 5.566406 -3.863281 5.890625 -3.46875 C 6.210938 -3.082031 6.375 -2.644531 6.375 -2.15625 C 6.375 -1.664062 6.257812 -1.242188 6.03125 -0.890625 C 5.800781 -0.546875 5.472656 -0.273438 5.046875 -0.078125 C 4.617188 0.109375 4.117188 0.210938 3.546875 0.234375 Z M 5.6875 -6.09375 C 5.5 -6.90625 5.226562 -7.507812 4.875 -7.90625 C 4.519531 -8.3125 4.039062 -8.546875 3.4375 -8.609375 L 3.4375 -8.90625 C 3.632812 -8.894531 3.816406 -8.867188 3.984375 -8.828125 C 4.160156 -8.785156 4.3125 -8.742188 4.4375 -8.703125 C 4.5625 -8.671875 4.640625 -8.648438 4.671875 -8.640625 C 4.941406 -8.546875 5.140625 -8.5 5.265625 -8.5 C 5.453125 -8.5 5.59375 -8.628906 5.6875 -8.890625 L 5.921875 -8.890625 L 5.921875 -6.09375 Z M 2.96875 0.234375 C 2.769531 0.222656 2.582031 0.195312 2.40625 0.15625 C 2.238281 0.113281 2.09375 0.0703125 1.96875 0.03125 C 1.851562 0 1.773438 -0.0195312 1.734375 -0.03125 C 1.472656 -0.125 1.28125 -0.171875 1.15625 -0.171875 C 0.96875 -0.171875 0.820312 -0.0390625 0.71875 0.21875 L 0.5 0.21875 L 0.5 -2.578125 L 0.71875 -2.578125 C 0.914062 -1.765625 1.191406 -1.15625 1.546875 -0.75 C 1.898438 -0.351562 2.375 -0.125 2.96875 -0.0625 Z M 2.96875 0.234375 "/></g></g></g><g fill="#a57e24" fill-opacity="1"><g transform="translate(67.333285, 90.01031)"><g><path d="M 1.78125 0 L 1.78125 -0.28125 L 4.578125 -0.28125 C 4.203125 -0.394531 3.925781 -0.597656 3.75 -0.890625 C 3.570312 -1.179688 3.484375 -1.585938 3.484375 -2.109375 L 3.484375 -6.703125 C 3.484375 -7.171875 3.460938 -7.515625 3.421875 -7.734375 C 3.378906 -7.953125 3.289062 -8.109375 3.15625 -8.203125 C 3.03125 -8.296875 2.832031 -8.34375 2.5625 -8.34375 C 2.082031 -8.34375 1.734375 -8.300781 1.515625 -8.21875 C 1.304688 -8.144531 1.132812 -7.988281 1 -7.75 C 0.875 -7.507812 0.710938 -7.085938 0.515625 -6.484375 L 0.28125 -6.484375 L 0.28125 -8.671875 L 3.390625 -8.671875 C 3.722656 -8.671875 3.984375 -8.609375 4.171875 -8.484375 C 4.367188 -8.359375 4.507812 -8.144531 4.59375 -7.84375 C 4.675781 -7.539062 4.71875 -7.113281 4.71875 -6.5625 L 4.71875 -1.96875 C 4.71875 -1.445312 4.75 -1.078125 4.8125 -0.859375 C 4.882812 -0.648438 5.03125 -0.503906 5.25 -0.421875 C 5.46875 -0.347656 5.859375 -0.285156 6.421875 -0.234375 L 6.421875 0 Z M 7.6875 -6.484375 C 7.488281 -7.078125 7.316406 -7.5 7.171875 -7.75 C 7.035156 -8.007812 6.867188 -8.171875 6.671875 -8.234375 C 6.484375 -8.304688 6.179688 -8.34375 5.765625 -8.34375 C 5.453125 -8.34375 5.191406 -8.265625 4.984375 -8.109375 C 4.890625 -8.378906 4.742188 -8.566406 4.546875 -8.671875 L 7.921875 -8.671875 L 7.921875 -6.484375 Z M 7.6875 -6.484375 "/></g></g></g><g fill="#a57e24" fill-opacity="1"><g transform="translate(80.236988, 90.01031)"><g><path d="M 8.015625 -6.5625 L 8.34375 -6.375 L 5.6875 -1.421875 L 5.40625 -1.421875 L 2.5625 -6.703125 C 2.257812 -7.253906 1.921875 -7.660156 1.546875 -7.921875 C 1.171875 -8.191406 0.75 -8.363281 0.28125 -8.4375 L 0.28125 -8.671875 L 3.796875 -8.671875 L 3.796875 -8.390625 L 2.28125 -8.390625 C 2.601562 -8.296875 2.90625 -8.078125 3.1875 -7.734375 C 3.46875 -7.390625 3.765625 -6.929688 4.078125 -6.359375 L 5.953125 -2.890625 Z M 10.21875 -1.96875 C 10.21875 -1.445312 10.242188 -1.078125 10.296875 -0.859375 C 10.359375 -0.648438 10.476562 -0.503906 10.65625 -0.421875 C 10.84375 -0.347656 11.171875 -0.285156 11.640625 -0.234375 L 11.640625 0 L 7.5625 0 L 7.5625 -0.28125 L 10.078125 -0.28125 C 9.703125 -0.394531 9.425781 -0.597656 9.25 -0.890625 C 9.070312 -1.179688 8.984375 -1.585938 8.984375 -2.109375 L 8.984375 -6.703125 C 8.984375 -7.234375 8.953125 -7.601562 8.890625 -7.8125 C 8.835938 -8.03125 8.722656 -8.175781 8.546875 -8.25 C 8.367188 -8.320312 8.039062 -8.382812 7.5625 -8.4375 L 7.5625 -8.671875 L 8.90625 -8.671875 C 9.25 -8.671875 9.515625 -8.609375 9.703125 -8.484375 C 9.890625 -8.359375 10.019531 -8.144531 10.09375 -7.84375 C 10.175781 -7.539062 10.21875 -7.113281 10.21875 -6.5625 Z M 11.640625 -8.671875 L 11.640625 -8.4375 C 11.359375 -8.414062 11.125 -8.378906 10.9375 -8.328125 C 10.757812 -8.285156 10.613281 -8.210938 10.5 -8.109375 C 10.394531 -8.378906 10.242188 -8.566406 10.046875 -8.671875 Z M 2.15625 -1.671875 C 2.164062 -1.265625 2.195312 -0.972656 2.25 -0.796875 C 2.3125 -0.628906 2.429688 -0.507812 2.609375 -0.4375 C 2.785156 -0.363281 3.101562 -0.296875 3.5625 -0.234375 L 3.5625 0 L 0.28125 0 L 0.28125 -0.234375 C 0.738281 -0.296875 1.054688 -0.363281 1.234375 -0.4375 C 1.410156 -0.507812 1.523438 -0.628906 1.578125 -0.796875 C 1.628906 -0.972656 1.660156 -1.265625 1.671875 -1.671875 L 1.734375 -5.046875 L 2.109375 -5.046875 Z M 2.15625 -1.671875 "/></g></g></g><g fill="#a57e24" fill-opacity="1"><g transform="translate(96.862597, 90.01031)"><g><path d="M 0.28125 0 L 0.28125 -0.28125 L 2.796875 -0.28125 C 2.421875 -0.394531 2.144531 -0.597656 1.96875 -0.890625 C 1.789062 -1.179688 1.703125 -1.585938 1.703125 -2.109375 L 1.703125 -6.703125 C 1.703125 -7.234375 1.671875 -7.601562 1.609375 -7.8125 C 1.554688 -8.03125 1.441406 -8.175781 1.265625 -8.25 C 1.085938 -8.320312 0.757812 -8.382812 0.28125 -8.4375 L 0.28125 -8.671875 L 1.625 -8.671875 C 1.96875 -8.671875 2.234375 -8.609375 2.421875 -8.484375 C 2.609375 -8.359375 2.738281 -8.144531 2.8125 -7.84375 C 2.894531 -7.539062 2.9375 -7.113281 2.9375 -6.5625 L 2.9375 -1.96875 C 2.9375 -1.445312 2.960938 -1.082031 3.015625 -0.875 C 3.066406 -0.675781 3.179688 -0.535156 3.359375 -0.453125 C 3.535156 -0.378906 3.847656 -0.320312 4.296875 -0.28125 L 4.296875 0 Z M 7.1875 -6.484375 C 6.976562 -7.117188 6.804688 -7.550781 6.671875 -7.78125 C 6.535156 -8.019531 6.351562 -8.171875 6.125 -8.234375 C 5.894531 -8.304688 5.503906 -8.34375 4.953125 -8.34375 L 3.234375 -8.34375 C 3.203125 -8.414062 3.160156 -8.476562 3.109375 -8.53125 C 3.054688 -8.582031 2.992188 -8.628906 2.921875 -8.671875 L 7.421875 -8.671875 L 7.421875 -6.484375 Z M 6.015625 -2.875 C 5.953125 -3.3125 5.882812 -3.617188 5.8125 -3.796875 C 5.738281 -3.972656 5.613281 -4.09375 5.4375 -4.15625 C 5.257812 -4.21875 4.972656 -4.25 4.578125 -4.25 L 3.515625 -4.25 L 3.515625 -4.578125 L 4.578125 -4.578125 C 4.984375 -4.578125 5.269531 -4.609375 5.4375 -4.671875 C 5.613281 -4.734375 5.738281 -4.851562 5.8125 -5.03125 C 5.882812 -5.207031 5.953125 -5.519531 6.015625 -5.96875 L 6.25 -5.96875 L 6.25 -2.875 Z M 4.859375 -0.28125 C 5.484375 -0.3125 5.925781 -0.363281 6.1875 -0.4375 C 6.445312 -0.507812 6.664062 -0.65625 6.84375 -0.875 C 7.03125 -1.09375 7.296875 -1.515625 7.640625 -2.140625 L 7.84375 -2.078125 L 7.4375 0 L 4.859375 0 Z M 4.859375 -0.28125 "/></g></g></g><g fill="#a57e24" fill-opacity="1"><g transform="translate(109.624249, 90.01031)"><g><path d="M 2.5625 -6.703125 C 2.25 -7.078125 1.976562 -7.378906 1.75 -7.609375 C 1.519531 -7.847656 1.285156 -8.035156 1.046875 -8.171875 C 0.816406 -8.304688 0.5625 -8.394531 0.28125 -8.4375 L 0.28125 -8.671875 L 3.71875 -8.671875 L 3.71875 -8.390625 L 2.0625 -8.390625 C 2.65625 -8.222656 3.390625 -7.601562 4.265625 -6.53125 L 8.4375 -1.359375 L 8.4375 0.234375 L 8.1875 0.234375 Z M 8 -7 C 7.988281 -7.40625 7.945312 -7.691406 7.875 -7.859375 C 7.800781 -8.035156 7.644531 -8.160156 7.40625 -8.234375 C 7.175781 -8.304688 6.769531 -8.375 6.1875 -8.4375 L 6.1875 -8.671875 L 9.875 -8.671875 L 9.875 -8.4375 C 9.425781 -8.375 9.113281 -8.304688 8.9375 -8.234375 C 8.757812 -8.160156 8.640625 -8.035156 8.578125 -7.859375 C 8.523438 -7.691406 8.492188 -7.40625 8.484375 -7 L 8.4375 -3.625 L 8.0625 -3.625 Z M 0.28125 -0.234375 C 0.738281 -0.296875 1.054688 -0.363281 1.234375 -0.4375 C 1.410156 -0.507812 1.523438 -0.628906 1.578125 -0.796875 C 1.628906 -0.972656 1.660156 -1.265625 1.671875 -1.671875 L 1.734375 -5.046875 L 2.109375 -5.046875 L 2.15625 -1.671875 C 2.164062 -1.265625 2.207031 -0.972656 2.28125 -0.796875 C 2.363281 -0.628906 2.519531 -0.507812 2.75 -0.4375 C 2.976562 -0.363281 3.390625 -0.296875 3.984375 -0.234375 L 3.984375 0 L 0.28125 0 Z M 0.28125 -0.234375 "/></g></g></g><g fill="#a57e24" fill-opacity="1"><g transform="translate(124.417322, 90.01031)"><g><path d="M 1.78125 0 L 1.78125 -0.28125 L 4.578125 -0.28125 C 4.203125 -0.394531 3.925781 -0.597656 3.75 -0.890625 C 3.570312 -1.179688 3.484375 -1.585938 3.484375 -2.109375 L 3.484375 -6.703125 C 3.484375 -7.171875 3.460938 -7.515625 3.421875 -7.734375 C 3.378906 -7.953125 3.289062 -8.109375 3.15625 -8.203125 C 3.03125 -8.296875 2.832031 -8.34375 2.5625 -8.34375 C 2.082031 -8.34375 1.734375 -8.300781 1.515625 -8.21875 C 1.304688 -8.144531 1.132812 -7.988281 1 -7.75 C 0.875 -7.507812 0.710938 -7.085938 0.515625 -6.484375 L 0.28125 -6.484375 L 0.28125 -8.671875 L 3.390625 -8.671875 C 3.722656 -8.671875 3.984375 -8.609375 4.171875 -8.484375 C 4.367188 -8.359375 4.507812 -8.144531 4.59375 -7.84375 C 4.675781 -7.539062 4.71875 -7.113281 4.71875 -6.5625 L 4.71875 -1.96875 C 4.71875 -1.445312 4.75 -1.078125 4.8125 -0.859375 C 4.882812 -0.648438 5.03125 -0.503906 5.25 -0.421875 C 5.46875 -0.347656 5.859375 -0.285156 6.421875 -0.234375 L 6.421875 0 Z M 7.6875 -6.484375 C 7.488281 -7.078125 7.316406 -7.5 7.171875 -7.75 C 7.035156 -8.007812 6.867188 -8.171875 6.671875 -8.234375 C 6.484375 -8.304688 6.179688 -8.34375 5.765625 -8.34375 C 5.453125 -8.34375 5.191406 -8.265625 4.984375 -8.109375 C 4.890625 -8.378906 4.742188 -8.566406 4.546875 -8.671875 L 7.921875 -8.671875 L 7.921875 -6.484375 Z M 7.6875 -6.484375 "/></g></g></g><g fill="#a57e24" fill-opacity="1"><g transform="translate(137.321025, 90.01031)"><g/></g></g><g fill="#a57e24" fill-opacity="1"><g transform="translate(145.437402, 90.01031)"><g><path d="M 3.546875 -0.0625 C 3.867188 -0.0703125 4.15625 -0.148438 4.40625 -0.296875 C 4.664062 -0.453125 4.863281 -0.660156 5 -0.921875 C 5.132812 -1.179688 5.203125 -1.476562 5.203125 -1.8125 C 5.203125 -2.050781 5.15625 -2.257812 5.0625 -2.4375 C 4.976562 -2.625 4.832031 -2.800781 4.625 -2.96875 C 4.425781 -3.132812 4.140625 -3.3125 3.765625 -3.5 L 2.375 -4.203125 C 1.738281 -4.523438 1.25 -4.890625 0.90625 -5.296875 C 0.570312 -5.703125 0.40625 -6.191406 0.40625 -6.765625 C 0.40625 -7.160156 0.503906 -7.515625 0.703125 -7.828125 C 0.910156 -8.148438 1.195312 -8.40625 1.5625 -8.59375 C 1.9375 -8.789062 2.375 -8.894531 2.875 -8.90625 L 2.875 -8.609375 C 2.632812 -8.609375 2.414062 -8.53125 2.21875 -8.375 C 2.019531 -8.226562 1.863281 -8.039062 1.75 -7.8125 C 1.632812 -7.582031 1.578125 -7.320312 1.578125 -7.03125 C 1.578125 -6.65625 1.6875 -6.332031 1.90625 -6.0625 C 2.132812 -5.789062 2.515625 -5.523438 3.046875 -5.265625 L 4.359375 -4.59375 C 5.054688 -4.238281 5.566406 -3.863281 5.890625 -3.46875 C 6.210938 -3.082031 6.375 -2.644531 6.375 -2.15625 C 6.375 -1.664062 6.257812 -1.242188 6.03125 -0.890625 C 5.800781 -0.546875 5.472656 -0.273438 5.046875 -0.078125 C 4.617188 0.109375 4.117188 0.210938 3.546875 0.234375 Z M 5.6875 -6.09375 C 5.5 -6.90625 5.226562 -7.507812 4.875 -7.90625 C 4.519531 -8.3125 4.039062 -8.546875 3.4375 -8.609375 L 3.4375 -8.90625 C 3.632812 -8.894531 3.816406 -8.867188 3.984375 -8.828125 C 4.160156 -8.785156 4.3125 -8.742188 4.4375 -8.703125 C 4.5625 -8.671875 4.640625 -8.648438 4.671875 -8.640625 C 4.941406 -8.546875 5.140625 -8.5 5.265625 -8.5 C 5.453125 -8.5 5.59375 -8.628906 5.6875 -8.890625 L 5.921875 -8.890625 L 5.921875 -6.09375 Z M 2.96875 0.234375 C 2.769531 0.222656 2.582031 0.195312 2.40625 0.15625 C 2.238281 0.113281 2.09375 0.0703125 1.96875 0.03125 C 1.851562 0 1.773438 -0.0195312 1.734375 -0.03125 C 1.472656 -0.125 1.28125 -0.171875 1.15625 -0.171875 C 0.96875 -0.171875 0.820312 -0.0390625 0.71875 0.21875 L 0.5 0.21875 L 0.5 -2.578125 L 0.71875 -2.578125 C 0.914062 -1.765625 1.191406 -1.15625 1.546875 -0.75 C 1.898438 -0.351562 2.375 -0.125 2.96875 -0.0625 Z M 2.96875 0.234375 "/></g></g></g><g fill="#a57e24" fill-opacity="1"><g transform="translate(156.920532, 90.01031)"><g><path d="M 4.765625 0.234375 C 3.941406 0.222656 3.207031 0.0078125 2.5625 -0.40625 C 1.925781 -0.820312 1.429688 -1.375 1.078125 -2.0625 C 0.734375 -2.75 0.5625 -3.515625 0.5625 -4.359375 C 0.5625 -5.203125 0.734375 -5.960938 1.078125 -6.640625 C 1.429688 -7.328125 1.925781 -7.875 2.5625 -8.28125 C 3.195312 -8.6875 3.929688 -8.894531 4.765625 -8.90625 L 4.765625 -8.609375 C 4.171875 -8.566406 3.660156 -8.359375 3.234375 -7.984375 C 2.816406 -7.617188 2.5 -7.125 2.28125 -6.5 C 2.070312 -5.882812 1.96875 -5.171875 1.96875 -4.359375 C 1.96875 -3.554688 2.070312 -2.835938 2.28125 -2.203125 C 2.5 -1.566406 2.816406 -1.0625 3.234375 -0.6875 C 3.660156 -0.3125 4.171875 -0.101562 4.765625 -0.0625 Z M 5.328125 -0.0625 C 5.929688 -0.101562 6.441406 -0.3125 6.859375 -0.6875 C 7.273438 -1.0625 7.59375 -1.566406 7.8125 -2.203125 C 8.03125 -2.835938 8.140625 -3.554688 8.140625 -4.359375 C 8.140625 -5.171875 8.03125 -5.882812 7.8125 -6.5 C 7.601562 -7.125 7.285156 -7.617188 6.859375 -7.984375 C 6.441406 -8.359375 5.929688 -8.566406 5.328125 -8.609375 L 5.328125 -8.90625 C 6.160156 -8.894531 6.894531 -8.6875 7.53125 -8.28125 C 8.164062 -7.875 8.65625 -7.328125 9 -6.640625 C 9.351562 -5.960938 9.53125 -5.203125 9.53125 -4.359375 C 9.53125 -3.515625 9.351562 -2.75 9 -2.0625 C 8.65625 -1.375 8.160156 -0.820312 7.515625 -0.40625 C 6.878906 0.0078125 6.148438 0.222656 5.328125 0.234375 Z M 5.328125 -0.0625 "/></g></g></g><g fill="#a57e24" fill-opacity="1"><g transform="translate(171.713606, 90.01031)"><g><path d="M 0.28125 0 L 0.28125 -0.28125 L 2.796875 -0.28125 C 2.421875 -0.394531 2.144531 -0.597656 1.96875 -0.890625 C 1.789062 -1.179688 1.703125 -1.585938 1.703125 -2.109375 L 1.703125 -6.703125 C 1.703125 -7.234375 1.671875 -7.601562 1.609375 -7.8125 C 1.554688 -8.03125 1.441406 -8.175781 1.265625 -8.25 C 1.085938 -8.320312 0.757812 -8.382812 0.28125 -8.4375 L 0.28125 -8.671875 L 1.625 -8.671875 C 1.96875 -8.671875 2.234375 -8.609375 2.421875 -8.484375 C 2.609375 -8.359375 2.738281 -8.144531 2.8125 -7.84375 C 2.894531 -7.539062 2.9375 -7.113281 2.9375 -6.5625 L 2.9375 -1.96875 C 2.9375 -1.445312 2.960938 -1.082031 3.015625 -0.875 C 3.066406 -0.675781 3.179688 -0.535156 3.359375 -0.453125 C 3.535156 -0.378906 3.847656 -0.320312 4.296875 -0.28125 L 4.296875 0 Z M 3.21875 -8.109375 C 3.125 -8.378906 2.972656 -8.566406 2.765625 -8.671875 L 4.359375 -8.671875 L 4.359375 -8.4375 C 4.078125 -8.414062 3.84375 -8.378906 3.65625 -8.328125 C 3.476562 -8.285156 3.332031 -8.210938 3.21875 -8.109375 Z M 4.859375 -0.28125 C 5.492188 -0.320312 5.941406 -0.382812 6.203125 -0.46875 C 6.472656 -0.5625 6.703125 -0.742188 6.890625 -1.015625 C 7.078125 -1.285156 7.335938 -1.800781 7.671875 -2.5625 L 7.890625 -2.5 L 7.4375 0 L 4.859375 0 Z M 4.859375 -0.28125 "/></g></g></g><g fill="#a57e24" fill-opacity="1"><g transform="translate(184.475258, 90.01031)"><g><path d="M 4.671875 0.234375 C 3.660156 0.234375 2.890625 -0.0351562 2.359375 -0.578125 C 1.828125 -1.117188 1.5625 -1.90625 1.5625 -2.9375 L 1.5625 -6.703125 C 1.5625 -7.234375 1.53125 -7.601562 1.46875 -7.8125 C 1.414062 -8.03125 1.300781 -8.175781 1.125 -8.25 C 0.945312 -8.320312 0.617188 -8.382812 0.140625 -8.4375 L 0.140625 -8.671875 L 1.484375 -8.671875 C 1.828125 -8.671875 2.09375 -8.609375 2.28125 -8.484375 C 2.46875 -8.359375 2.597656 -8.144531 2.671875 -7.84375 C 2.753906 -7.539062 2.796875 -7.113281 2.796875 -6.5625 L 2.796875 -3.046875 C 2.796875 -2.128906 2.972656 -1.4375 3.328125 -0.96875 C 3.691406 -0.5 4.222656 -0.265625 4.921875 -0.265625 C 5.316406 -0.265625 5.6875 -0.335938 6.03125 -0.484375 C 6.382812 -0.628906 6.75 -0.863281 7.125 -1.1875 L 7.34375 -0.9375 C 7.019531 -0.5625 6.625 -0.269531 6.15625 -0.0625 C 5.695312 0.132812 5.203125 0.234375 4.671875 0.234375 Z M 3.078125 -8.109375 C 2.972656 -8.378906 2.820312 -8.566406 2.625 -8.671875 L 4.21875 -8.671875 L 4.21875 -8.4375 C 3.925781 -8.425781 3.6875 -8.394531 3.5 -8.34375 C 3.320312 -8.289062 3.179688 -8.210938 3.078125 -8.109375 Z M 7.609375 -7 C 7.597656 -7.40625 7.5625 -7.691406 7.5 -7.859375 C 7.445312 -8.035156 7.332031 -8.160156 7.15625 -8.234375 C 6.976562 -8.304688 6.664062 -8.375 6.21875 -8.4375 L 6.21875 -8.671875 L 9.484375 -8.671875 L 9.484375 -8.4375 C 9.035156 -8.375 8.722656 -8.304688 8.546875 -8.234375 C 8.367188 -8.160156 8.25 -8.035156 8.1875 -7.859375 C 8.132812 -7.691406 8.101562 -7.40625 8.09375 -7 L 8.03125 -3.625 L 7.65625 -3.625 Z M 7.609375 -7 "/></g></g></g><g fill="#a57e24" fill-opacity="1"><g transform="translate(198.799545, 90.01031)"><g><path d="M 1.78125 0 L 1.78125 -0.28125 L 4.578125 -0.28125 C 4.203125 -0.394531 3.925781 -0.597656 3.75 -0.890625 C 3.570312 -1.179688 3.484375 -1.585938 3.484375 -2.109375 L 3.484375 -6.703125 C 3.484375 -7.171875 3.460938 -7.515625 3.421875 -7.734375 C 3.378906 -7.953125 3.289062 -8.109375 3.15625 -8.203125 C 3.03125 -8.296875 2.832031 -8.34375 2.5625 -8.34375 C 2.082031 -8.34375 1.734375 -8.300781 1.515625 -8.21875 C 1.304688 -8.144531 1.132812 -7.988281 1 -7.75 C 0.875 -7.507812 0.710938 -7.085938 0.515625 -6.484375 L 0.28125 -6.484375 L 0.28125 -8.671875 L 3.390625 -8.671875 C 3.722656 -8.671875 3.984375 -8.609375 4.171875 -8.484375 C 4.367188 -8.359375 4.507812 -8.144531 4.59375 -7.84375 C 4.675781 -7.539062 4.71875 -7.113281 4.71875 -6.5625 L 4.71875 -1.96875 C 4.71875 -1.445312 4.75 -1.078125 4.8125 -0.859375 C 4.882812 -0.648438 5.03125 -0.503906 5.25 -0.421875 C 5.46875 -0.347656 5.859375 -0.285156 6.421875 -0.234375 L 6.421875 0 Z M 7.6875 -6.484375 C 7.488281 -7.078125 7.316406 -7.5 7.171875 -7.75 C 7.035156 -8.007812 6.867188 -8.171875 6.671875 -8.234375 C 6.484375 -8.304688 6.179688 -8.34375 5.765625 -8.34375 C 5.453125 -8.34375 5.191406 -8.265625 4.984375 -8.109375 C 4.890625 -8.378906 4.742188 -8.566406 4.546875 -8.671875 L 7.921875 -8.671875 L 7.921875 -6.484375 Z M 7.6875 -6.484375 "/></g></g></g><g fill="#a57e24" fill-opacity="1"><g transform="translate(211.703225, 90.01031)"><g><path d="M 0.28125 0 L 0.28125 -0.28125 L 2.796875 -0.28125 C 2.421875 -0.394531 2.144531 -0.597656 1.96875 -0.890625 C 1.789062 -1.179688 1.703125 -1.585938 1.703125 -2.109375 L 1.703125 -6.703125 C 1.703125 -7.234375 1.671875 -7.601562 1.609375 -7.8125 C 1.554688 -8.03125 1.441406 -8.175781 1.265625 -8.25 C 1.085938 -8.320312 0.757812 -8.382812 0.28125 -8.4375 L 0.28125 -8.671875 L 1.625 -8.671875 C 1.96875 -8.671875 2.234375 -8.609375 2.421875 -8.484375 C 2.609375 -8.359375 2.738281 -8.144531 2.8125 -7.84375 C 2.894531 -7.539062 2.9375 -7.113281 2.9375 -6.5625 L 2.9375 -1.96875 C 2.9375 -1.445312 2.960938 -1.078125 3.015625 -0.859375 C 3.078125 -0.648438 3.195312 -0.503906 3.375 -0.421875 C 3.5625 -0.347656 3.890625 -0.285156 4.359375 -0.234375 L 4.359375 0 Z M 3.21875 -8.109375 C 3.125 -8.378906 2.972656 -8.566406 2.765625 -8.671875 L 4.359375 -8.671875 L 4.359375 -8.4375 C 4.078125 -8.414062 3.84375 -8.378906 3.65625 -8.328125 C 3.476562 -8.285156 3.332031 -8.210938 3.21875 -8.109375 Z M 3.21875 -8.109375 "/></g></g></g><g fill="#a57e24" fill-opacity="1"><g transform="translate(221.055503, 90.01031)"><g><path d="M 4.765625 0.234375 C 3.941406 0.222656 3.207031 0.0078125 2.5625 -0.40625 C 1.925781 -0.820312 1.429688 -1.375 1.078125 -2.0625 C 0.734375 -2.75 0.5625 -3.515625 0.5625 -4.359375 C 0.5625 -5.203125 0.734375 -5.960938 1.078125 -6.640625 C 1.429688 -7.328125 1.925781 -7.875 2.5625 -8.28125 C 3.195312 -8.6875 3.929688 -8.894531 4.765625 -8.90625 L 4.765625 -8.609375 C 4.171875 -8.566406 3.660156 -8.359375 3.234375 -7.984375 C 2.816406 -7.617188 2.5 -7.125 2.28125 -6.5 C 2.070312 -5.882812 1.96875 -5.171875 1.96875 -4.359375 C 1.96875 -3.554688 2.070312 -2.835938 2.28125 -2.203125 C 2.5 -1.566406 2.816406 -1.0625 3.234375 -0.6875 C 3.660156 -0.3125 4.171875 -0.101562 4.765625 -0.0625 Z M 5.328125 -0.0625 C 5.929688 -0.101562 6.441406 -0.3125 6.859375 -0.6875 C 7.273438 -1.0625 7.59375 -1.566406 7.8125 -2.203125 C 8.03125 -2.835938 8.140625 -3.554688 8.140625 -4.359375 C 8.140625 -5.171875 8.03125 -5.882812 7.8125 -6.5 C 7.601562 -7.125 7.285156 -7.617188 6.859375 -7.984375 C 6.441406 -8.359375 5.929688 -8.566406 5.328125 -8.609375 L 5.328125 -8.90625 C 6.160156 -8.894531 6.894531 -8.6875 7.53125 -8.28125 C 8.164062 -7.875 8.65625 -7.328125 9 -6.640625 C 9.351562 -5.960938 9.53125 -5.203125 9.53125 -4.359375 C 9.53125 -3.515625 9.351562 -2.75 9 -2.0625 C 8.65625 -1.375 8.160156 -0.820312 7.515625 -0.40625 C 6.878906 0.0078125 6.148438 0.222656 5.328125 0.234375 Z M 5.328125 -0.0625 "/></g></g></g><g fill="#a57e24" fill-opacity="1"><g transform="translate(235.848576, 90.01031)"><g><path d="M 2.5625 -6.703125 C 2.25 -7.078125 1.976562 -7.378906 1.75 -7.609375 C 1.519531 -7.847656 1.285156 -8.035156 1.046875 -8.171875 C 0.816406 -8.304688 0.5625 -8.394531 0.28125 -8.4375 L 0.28125 -8.671875 L 3.71875 -8.671875 L 3.71875 -8.390625 L 2.0625 -8.390625 C 2.65625 -8.222656 3.390625 -7.601562 4.265625 -6.53125 L 8.4375 -1.359375 L 8.4375 0.234375 L 8.1875 0.234375 Z M 8 -7 C 7.988281 -7.40625 7.945312 -7.691406 7.875 -7.859375 C 7.800781 -8.035156 7.644531 -8.160156 7.40625 -8.234375 C 7.175781 -8.304688 6.769531 -8.375 6.1875 -8.4375 L 6.1875 -8.671875 L 9.875 -8.671875 L 9.875 -8.4375 C 9.425781 -8.375 9.113281 -8.304688 8.9375 -8.234375 C 8.757812 -8.160156 8.640625 -8.035156 8.578125 -7.859375 C 8.523438 -7.691406 8.492188 -7.40625 8.484375 -7 L 8.4375 -3.625 L 8.0625 -3.625 Z M 0.28125 -0.234375 C 0.738281 -0.296875 1.054688 -0.363281 1.234375 -0.4375 C 1.410156 -0.507812 1.523438 -0.628906 1.578125 -0.796875 C 1.628906 -0.972656 1.660156 -1.265625 1.671875 -1.671875 L 1.734375 -5.046875 L 2.109375 -5.046875 L 2.15625 -1.671875 C 2.164062 -1.265625 2.207031 -0.972656 2.28125 -0.796875 C 2.363281 -0.628906 2.519531 -0.507812 2.75 -0.4375 C 2.976562 -0.363281 3.390625 -0.296875 3.984375 -0.234375 L 3.984375 0 L 0.28125 0 Z M 0.28125 -0.234375 "/></g></g></g><g fill="#a57e24" fill-opacity="1"><g transform="translate(250.641649, 90.01031)"><g><path d="M 3.546875 -0.0625 C 3.867188 -0.0703125 4.15625 -0.148438 4.40625 -0.296875 C 4.664062 -0.453125 4.863281 -0.660156 5 -0.921875 C 5.132812 -1.179688 5.203125 -1.476562 5.203125 -1.8125 C 5.203125 -2.050781 5.15625 -2.257812 5.0625 -2.4375 C 4.976562 -2.625 4.832031 -2.800781 4.625 -2.96875 C 4.425781 -3.132812 4.140625 -3.3125 3.765625 -3.5 L 2.375 -4.203125 C 1.738281 -4.523438 1.25 -4.890625 0.90625 -5.296875 C 0.570312 -5.703125 0.40625 -6.191406 0.40625 -6.765625 C 0.40625 -7.160156 0.503906 -7.515625 0.703125 -7.828125 C 0.910156 -8.148438 1.195312 -8.40625 1.5625 -8.59375 C 1.9375 -8.789062 2.375 -8.894531 2.875 -8.90625 L 2.875 -8.609375 C 2.632812 -8.609375 2.414062 -8.53125 2.21875 -8.375 C 2.019531 -8.226562 1.863281 -8.039062 1.75 -7.8125 C 1.632812 -7.582031 1.578125 -7.320312 1.578125 -7.03125 C 1.578125 -6.65625 1.6875 -6.332031 1.90625 -6.0625 C 2.132812 -5.789062 2.515625 -5.523438 3.046875 -5.265625 L 4.359375 -4.59375 C 5.054688 -4.238281 5.566406 -3.863281 5.890625 -3.46875 C 6.210938 -3.082031 6.375 -2.644531 6.375 -2.15625 C 6.375 -1.664062 6.257812 -1.242188 6.03125 -0.890625 C 5.800781 -0.546875 5.472656 -0.273438 5.046875 -0.078125 C 4.617188 0.109375 4.117188 0.210938 3.546875 0.234375 Z M 5.6875 -6.09375 C 5.5 -6.90625 5.226562 -7.507812 4.875 -7.90625 C 4.519531 -8.3125 4.039062 -8.546875 3.4375 -8.609375 L 3.4375 -8.90625 C 3.632812 -8.894531 3.816406 -8.867188 3.984375 -8.828125 C 4.160156 -8.785156 4.3125 -8.742188 4.4375 -8.703125 C 4.5625 -8.671875 4.640625 -8.648438 4.671875 -8.640625 C 4.941406 -8.546875 5.140625 -8.5 5.265625 -8.5 C 5.453125 -8.5 5.59375 -8.628906 5.6875 -8.890625 L 5.921875 -8.890625 L 5.921875 -6.09375 Z M 2.96875 0.234375 C 2.769531 0.222656 2.582031 0.195312 2.40625 0.15625 C 2.238281 0.113281 2.09375 0.0703125 1.96875 0.03125 C 1.851562 0 1.773438 -0.0195312 1.734375 -0.03125 C 1.472656 -0.125 1.28125 -0.171875 1.15625 -0.171875 C 0.96875 -0.171875 0.820312 -0.0390625 0.71875 0.21875 L 0.5 0.21875 L 0.5 -2.578125 L 0.71875 -2.578125 C 0.914062 -1.765625 1.191406 -1.15625 1.546875 -0.75 C 1.898438 -0.351562 2.375 -0.125 2.96875 -0.0625 Z M 2.96875 0.234375 "/></g></g></g></svg>